<svg width="71" height="45" viewBox="0 0 71 45" fill="none" xmlns="http://www.w3.org/2000/svg">
<g clip-path="url(#clip0_94_48)">
<path d="M60.4617 43.3935C58.5635 43.3935 56.6714 42.9593 55.1895 42.0972C53.5668 41.1482 52.6667 39.8084 52.6667 38.3384C52.6667 36.8684 53.5607 35.5348 55.1895 34.5796C56.059 34.071 56.555 33.4383 56.555 32.8491C56.555 32.2598 56.059 31.6272 55.1895 31.1185C52.9606 29.816 48.1171 30.4425 44.6145 32.4893L37.5788 36.6079C37.0277 36.9304 36.3174 36.7381 35.999 36.1799C35.6806 35.6216 35.8704 34.9021 36.4215 34.5796L43.4572 30.4611C47.7252 27.9676 53.3893 27.3598 56.3407 29.0903C57.9634 30.0393 58.8635 31.3728 58.8635 32.8491C58.8635 34.3191 57.9695 35.6527 56.3407 36.6079C55.4712 37.1165 54.9752 37.7429 54.9752 38.3384C54.9752 38.9338 55.4712 39.5603 56.3407 40.0689C58.5696 41.3715 62.3416 41.3715 64.5705 40.0689L69.2609 37.3274C69.812 37.0048 70.5223 37.1971 70.8408 37.7553C71.1592 38.3136 70.9693 39.0331 70.4182 39.3556L65.7278 42.0972C64.2521 42.9593 62.3538 43.3935 60.4556 43.3935H60.4617Z" fill="#EBE4FF"/>
<g opacity="0.1">
<path d="M60.4617 43.3935C58.5635 43.3935 56.6714 42.9593 55.1895 42.0972C53.5668 41.1482 52.6667 39.8084 52.6667 38.3384C52.6667 36.8684 53.5607 35.5348 55.1895 34.5796C56.059 34.071 56.555 33.4383 56.555 32.8491C56.555 32.2598 56.059 31.6272 55.1895 31.1185C52.9606 29.816 48.1171 30.4425 44.6145 32.4893L37.5788 36.6079C37.0277 36.9304 36.3174 36.7381 35.999 36.1799C35.6806 35.6216 35.8704 34.9021 36.4215 34.5796L43.4572 30.4611C47.7252 27.9676 53.3893 27.3598 56.3407 29.0903C57.9634 30.0393 58.8635 31.3728 58.8635 32.8491C58.8635 34.3191 57.9695 35.6527 56.3407 36.6079C55.4712 37.1165 54.9752 37.7429 54.9752 38.3384C54.9752 38.9338 55.4712 39.5603 56.3407 40.0689C58.5696 41.3715 62.3416 41.3715 64.5705 40.0689L69.2609 37.3274C69.812 37.0048 70.5223 37.1971 70.8408 37.7553C71.1592 38.3136 70.9693 39.0331 70.4182 39.3556L65.7278 42.0972C64.2521 42.9593 62.3538 43.3935 60.4556 43.3935H60.4617Z" fill="black"/>
</g>
<path d="M41.5741 29.0932C44.1602 17.9943 37.3742 6.87328 26.4172 4.2537C15.4602 1.63412 4.48128 8.50798 1.89518 19.6069C-0.69091 30.7058 6.09507 41.8268 17.0521 44.4464C28.0091 47.066 38.988 40.1921 41.5741 29.0932Z" fill="#EBE4FF"/>
<mask id="mask0_94_48" style="mask-type:luminance" maskUnits="userSpaceOnUse" x="1" y="3" width="42" height="43">
<path d="M41.5741 29.0932C44.1602 17.9943 37.3742 6.87328 26.4172 4.2537C15.4602 1.63412 4.48128 8.50798 1.89518 19.6069C-0.69091 30.7058 6.09507 41.8268 17.0521 44.4464C28.0091 47.066 38.988 40.1921 41.5741 29.0932Z" fill="white"/>
</mask>
<g mask="url(#mask0_94_48)">
<path opacity="0.1" d="M48.3314 43.0586C43.3409 41.5761 38.7546 39.4486 34.756 36.5024C35.7419 36.7505 36.8135 36.887 37.9953 37.0234C40.4385 37.3149 43.4267 37.7739 45.3739 35.9628C45.7413 35.6216 45.2024 35.3673 44.9085 35.3921C42.7102 35.5906 40.0221 35.9007 37.4258 35.7643C34.5233 35.6092 31.8168 34.2508 29.8267 32.1047C29.4165 31.6644 29.0123 31.2054 28.6204 30.734C30.586 31.6457 32.9558 32.1109 34.5539 32.2474C39.2873 32.6506 42.9123 31.1061 46.1148 27.6885C46.4761 27.3039 46.1332 26.8511 45.6617 26.938C44.7799 27.0992 44.3023 27.5954 43.5736 28.1413C41.259 29.8842 39.3057 30.4424 36.4399 30.5293C34.4621 30.5913 32.3863 30.2502 30.5248 29.5493C29.5634 29.1895 28.6939 28.6375 27.7754 28.1847C26.8753 27.7443 25.9323 27.0558 25.4118 26.1812C24.9893 25.4741 24.6219 24.705 24.2729 23.9049C28.002 26.1874 34.1804 25.7595 37.9585 25.1888C41.9509 24.581 45.6555 22.9435 47.5966 19.2343C47.9395 18.5768 46.9966 18.459 46.6292 18.8187C45.2392 20.1957 44.3758 21.1385 42.6061 22.1495C40.8181 23.173 39.0362 23.6072 36.9665 23.8429C32.7476 24.3267 27.408 24.2894 23.5871 22.1247C23.336 21.399 23.1094 20.6609 22.9196 19.9104C26.3058 20.7664 29.9921 20.3322 33.366 19.439C35.3928 18.9056 37.2176 18.1178 38.926 16.8587C39.9853 16.0772 41.9448 14.9421 42.251 13.5713C42.3979 12.92 41.4549 12.9697 41.1671 13.317C39.1342 15.767 35.9194 17.2743 32.9006 18.1488C33.611 15.3887 34.3886 13.0627 36.195 10.7181C37.0706 9.58303 38.0014 8.62163 39.0117 7.6044C39.3301 7.28807 39.6914 7.00895 39.7404 6.54375C39.8078 5.87387 38.6872 6.21501 38.5402 6.63059C38.577 6.51894 37.9585 6.77945 37.9157 6.79806C37.3156 7.08958 36.8502 7.82149 36.4032 8.29909C35.65 9.09923 34.9213 9.93658 34.2784 10.836C32.5945 13.2116 31.8474 15.736 31.2902 18.5458C29.8512 18.8249 28.4 18.8497 26.9549 18.8808C26.6549 18.0124 27.0284 16.5424 27.108 15.6864C27.2243 14.3963 27.2733 13.1309 27.5734 11.8594C28.2714 8.91315 30.3533 6.30185 30.8922 3.41143C30.9534 3.07649 30.286 3.04547 30.139 3.24396C27.9959 6.22121 26.3609 9.70088 25.8037 13.379C25.5833 14.818 25.0505 17.2061 25.2955 18.9242C24.922 18.9366 24.5729 18.9118 24.2055 18.8311C23.8198 18.7505 23.4279 18.6575 23.0911 18.4528C22.295 17.9752 22.3379 16.989 22.2338 16.1516C22.1113 15.184 22.0379 14.2102 22.0256 13.2364C21.995 10.9166 22.2461 8.43555 22.938 6.21501C23.5197 4.34182 24.8423 2.6299 25.0995 0.651263C25.222 -0.297738 23.8687 -0.167483 23.6544 0.576831C23.0788 2.54926 21.597 4.13713 20.9663 6.13438C20.1396 8.77669 19.9069 11.6609 19.9743 14.4211C20.0723 18.6451 21.3949 23.4955 23.4524 27.1799C26.4344 32.5265 31.278 37.7925 36.9727 40.9683C30.4452 38.1461 24.7382 33.1282 20.8806 27.2419C16.3738 20.3632 14.0285 10.3211 17.0106 2.36319C17.127 2.05926 16.5697 1.88558 16.3983 2.09647C13.8081 5.25361 13.9306 10.5941 14.5552 14.4087C15.2716 18.7691 16.2452 23.0985 18.5966 26.9131C21.15 31.0627 24.0708 34.6974 28.0326 37.5568C29.5757 38.6733 31.2167 39.8332 32.9496 40.8256C30.4636 40.0565 27.9652 39.0269 25.9568 37.6685C23.1952 35.7953 20.8009 33.4135 18.5659 30.9449C14.9287 26.9318 12.5345 22.6209 11.3465 17.2743C10.8567 15.0724 10.7403 12.8642 10.7219 10.6127C10.7036 8.49137 10.3668 5.82425 11.169 3.83941C11.3527 3.38662 10.4158 3.37421 10.2382 3.68434C9.37482 5.18538 9.11764 7.00895 9.02579 8.71467C8.97068 9.67607 9.01354 10.6375 9.02579 11.5989C9.04416 12.5045 8.98905 13.3666 8.49918 14.1606C8.10729 14.7994 7.5317 15.1654 7.03571 15.6988C6.58258 16.1888 6.09884 16.654 5.63959 17.1378C4.68435 18.1364 3.82708 19.2343 3.04329 20.3756C0.489866 24.0848 0.05511 28.501 0 32.8553C0 33.3143 0.857266 33.1778 0.961363 32.8304C2.21052 28.6375 1.98396 24.4631 4.74558 20.8098C6.11721 18.9924 7.82561 17.6216 9.48504 16.133C9.49728 16.195 9.50341 16.2633 9.51565 16.3253C9.68711 17.4169 9.91367 18.4962 10.1892 19.563C10.4097 20.4128 10.6668 21.368 10.0423 22.1185C9.62587 22.6209 9.00742 22.9621 8.52367 23.3839C7.97257 23.8553 7.47659 24.4073 6.99284 24.9531C6.16007 25.9021 5.4069 26.9194 4.62311 27.9118C2.08193 31.1433 0.0306166 36.1116 0.71643 40.3232C0.747046 40.5155 0.955239 40.6147 1.16343 40.6209C0.979733 41.6258 0.942993 42.6554 1.12057 43.6974C1.1818 44.082 1.72678 44.0882 1.81863 43.7098C2.59629 40.4845 3.99241 37.5568 5.92738 35.0882C7.5317 37.7553 10.9424 39.8704 13.6244 40.7202C15.7186 41.3839 17.7638 41.7994 19.9621 41.787C22.4481 41.7746 24.628 41.4707 26.8753 40.5341C29.8574 42.2584 32.8149 43.0151 36.3052 43.2384C36.593 43.257 36.8931 43.0276 37.0645 42.7546C37.8054 42.9965 38.5586 43.1888 39.324 43.3129C39.7098 43.3749 40.1935 42.9283 40.2425 42.5499C42.7102 43.5114 45.2881 44.0634 47.9089 44.0448C48.3927 44.0448 49.0846 43.2881 48.3437 43.0648L48.3314 43.0586ZM14.3898 28.7739C14.8368 29.4128 15.3083 30.0393 15.8166 30.6533C16.8575 31.9001 17.972 33.1406 19.1599 34.3191C19.0742 34.2322 18.4006 34.3439 18.2598 34.3439C17.9414 34.3439 17.6229 34.3439 17.3107 34.3377C16.6983 34.3129 16.0921 34.257 15.492 34.133C14.3531 33.9035 13.2019 33.5065 12.2467 32.8242C11.7629 32.4769 11.3894 32.0303 11.022 31.5837C10.7219 31.2178 10.6117 30.7402 11.0771 30.4486C11.4078 30.244 11.7507 30.0455 12.0936 29.8594C12.7978 29.481 13.5203 29.1399 14.2612 28.8484C14.3041 28.8298 14.347 28.8049 14.3837 28.7801L14.3898 28.7739ZM2.32074 37.2715C3.07391 34.2819 4.10875 31.4411 6.04373 28.9352C7.61742 26.9007 9.45442 24.9841 11.4445 23.3528C11.3527 23.4273 12.2038 25.0524 12.2895 25.226C12.51 25.6664 13.2325 26.572 13.0917 27.0868C13.0672 27.1861 12.9998 27.2667 12.9202 27.3349C12.7426 27.4962 12.5222 27.583 12.3018 27.6761C9.39931 28.8422 7.10919 30.7836 5.08849 33.1778C4.05364 34.3997 3.06166 35.7829 2.31462 37.2715H2.32074ZM20.8867 40.0751C18.9456 40.1371 17.1147 39.8642 15.241 39.3246C12.3997 38.5058 8.73187 36.4838 7.13368 33.674C7.72152 33.0475 8.33997 32.4521 9.01354 31.9063C9.80345 33.2894 11.616 34.4679 12.81 35.0014C14.9593 35.969 18.2965 36.6823 20.5683 35.6526C22.0746 37.0296 23.832 38.4376 25.5404 39.5355C24.0831 39.9076 22.4175 40.0255 20.8867 40.0751Z" fill="black"/>
</g>
</g>
<defs>
<clipPath id="clip0_94_48">
<rect width="71" height="45" fill="white"/>
</clipPath>
</defs>
</svg>
