<svg width="37" height="68" viewBox="0 0 37 68" fill="none" xmlns="http://www.w3.org/2000/svg">
<g clip-path="url(#clip0_94_61)">
<path d="M29.3399 58.0757L35.4514 54.5866C35.4514 54.5866 38.3831 38.4574 36.1903 24.5952C33.105 5.10679 19.8181 -1.61764 14.9951 0.318808C10.1721 2.25526 9.03723 8.02917 17.7494 19.2936C22.8915 25.9413 29.5054 39.9865 29.3399 58.0757Z" fill="#45C58F"/>
<g opacity="0.1">
<path d="M29.3399 58.0757L35.4514 54.5866C35.4514 54.5866 38.3831 38.4574 36.1903 24.5952C33.105 5.10679 19.8181 -1.61764 14.9951 0.318808C10.1721 2.25526 9.03723 8.02917 17.7494 19.2936C22.8915 25.9413 29.5054 39.9865 29.3399 58.0757Z" fill="black"/>
</g>
<path d="M31.5564 50.3358C31.5564 50.3358 31.515 50.3358 31.4973 50.3358C31.2609 50.3004 31.0894 50.082 31.1249 49.8458C33.6487 31.5913 26.3019 11.601 18.0449 3.5423C17.8735 3.37699 17.8676 3.09951 18.039 2.9283C18.2045 2.75709 18.4823 2.75119 18.6537 2.9224C27.0585 11.1287 34.5471 31.4437 31.9819 49.9639C31.9524 50.1823 31.7632 50.3417 31.5505 50.3417L31.5564 50.3358Z" fill="white"/>
<path d="M12.3885 67.8583C11.4251 68.4133 9.43323 67.203 8.67077 66.6894C7.36454 65.8156 6.30655 64.5758 5.60911 63.1766C4.79345 61.5472 4.58658 59.7996 4.84074 57.999C4.97077 57.0662 5.23674 56.1511 5.49681 55.2478C5.75096 54.3563 6.01102 53.4648 6.26518 52.5734C6.51933 51.6937 6.77348 50.7845 6.65527 49.8753C6.41885 48.0452 4.79936 46.764 3.32173 45.66C1.69042 44.4438 -0.0118209 42.8262 1.81779e-07 40.63C0.00591072 38.9297 0.886582 37.3534 1.93866 36.0191C2.99073 34.6848 4.24377 33.51 5.19537 32.1049C5.88099 31.0894 6.41294 29.9028 6.30655 28.6866C6.23562 27.9309 5.92236 27.2165 5.56182 26.5494C4.78163 25.1148 3.75911 23.8041 3.22125 22.2632C2.68339 20.7224 2.76022 18.8095 3.96597 17.7055C4.95304 16.8022 6.41885 16.6723 7.75463 16.7609C8.98994 16.8436 10.2016 17.3985 11.2832 18.0007C14.7823 19.9431 16.78 24.0816 20.4919 25.5753C21.9222 26.1539 23.4944 26.2778 24.9839 26.6734C26.4792 27.0689 27.9982 27.8305 28.6898 29.2061C30.0551 31.9219 27.5254 35.2752 28.4829 38.1622C29.3281 40.7185 31.8165 41.6927 33.2113 43.9951C33.8201 45.0047 33.962 46.1677 33.8615 47.3367C33.696 49.3204 33.4064 50.7786 32.4489 52.9866C31.6628 54.8109 29.3458 58.0757 29.3458 58.0757C29.2867 58.1348 12.5422 67.7698 12.3944 67.8583H12.3885Z" fill="#45C58F"/>
<path d="M22.3064 62.5803H22.2946C22.0463 62.5685 21.8631 62.3678 21.869 62.1257C22.5901 44.8512 14.4395 25.7819 8.51709 20.2441C8.33977 20.0788 8.33386 19.8073 8.49936 19.6302C8.66485 19.453 8.93674 19.4471 9.11405 19.6124C15.1605 25.2624 23.4708 44.6505 22.7438 62.1671C22.7319 62.4032 22.5428 62.5862 22.3064 62.5862V62.5803Z" fill="white"/>
<path d="M19.7176 42.1709C19.6762 42.1709 19.6289 42.165 19.5876 42.1532C14.0317 40.4351 7.10449 40.1341 7.03948 40.1341C6.79715 40.1222 6.61392 39.9215 6.61983 39.6795C6.63165 39.4374 6.81488 39.2485 7.07494 39.2603C7.14587 39.2603 14.1794 39.5732 19.8476 41.3207C20.0781 41.3916 20.2082 41.6336 20.1372 41.8639C20.0781 42.0528 19.9067 42.1709 19.7235 42.1709H19.7176Z" fill="white"/>
</g>
<defs>
<clipPath id="clip0_94_61">
<rect width="37" height="68" fill="white"/>
</clipPath>
</defs>
</svg>
