<svg width="113" height="125" viewBox="0 0 113 125" fill="none" xmlns="http://www.w3.org/2000/svg">
<path d="M90.4378 10.3703C89.4935 10.5288 88.5846 10.8861 87.759 11.4233L87.6724 11.4793C83.343 14.3753 80.8069 22.1212 81.8082 30.7093C82.9998 40.9878 88.7891 48.5491 94.767 47.5905C95.7105 47.4324 96.6187 47.0756 97.4435 46.5389C101.832 43.7016 104.422 35.8856 103.418 27.2375C102.205 16.973 96.3939 9.42561 90.4378 10.3703ZM78.934 60.9235C67.1489 53.6309 62.3821 51.1042 55.4972 55.5554C48.6122 60.0066 48.175 65.9333 47.9086 80.9818C47.6757 93.8557 37.6718 101.384 39.2524 111.168C39.4907 112.993 40.0432 114.75 40.8792 116.339C44.278 122.931 51.5326 125.356 57.0752 121.772C63.9601 117.321 70.1611 105.105 78.345 99.8137C86.529 94.5227 99.0342 94.6454 105.919 90.1942C111.462 86.6109 113.193 78.3797 109.793 71.7853C108.974 70.183 107.885 68.7739 106.586 67.6362C99.7942 61.1819 89.0069 67.1346 78.934 60.9235ZM36.2511 53.7749C36.5412 53.5878 36.8181 53.3763 37.0797 53.1423C41.6835 49.0765 40.8007 39.2513 35.1219 31.1821C29.7702 23.5737 22.0699 20.2734 17.3652 23.3151C17.0752 23.5023 16.7982 23.7137 16.5367 23.9477C11.9328 28.0136 12.8156 37.8387 18.4945 45.9079C23.8337 53.492 31.5464 56.8166 36.2511 53.7749ZM66.5308 14.8518C63.1297 5.31008 55.9725 -0.458623 50.5261 1.97315C50.2144 2.10977 49.9124 2.27263 49.6226 2.46031C44.9179 5.50196 43.6288 14.614 46.8349 23.6095C50.2361 33.1512 57.3933 38.9199 62.8396 36.4881C63.1514 36.3515 63.4534 36.1887 63.7432 36.001C68.4479 32.9593 69.7331 23.8175 66.5308 14.8518ZM29.7088 89.6514C33.4314 84.3354 30.4724 74.9345 23.1283 68.6465C16.9439 63.348 9.6087 61.9484 5.2266 64.7815C4.39912 65.3131 3.66906 66.0154 3.07505 66.8513C-0.647536 72.1673 2.31151 81.5682 9.65557 87.8562C15.84 93.1547 23.1752 94.5543 27.5573 91.7212C28.3848 91.1896 29.1148 90.4873 29.7088 89.6514Z" stroke="#767676" stroke-width="1.5" stroke-miterlimit="10"/>
</svg>
